# AST/ASF file generated using VICON BodyLanguage
# -----------------------------------------------
:version 1.10
:name VICON
:units
  mass 1.0
  length 0.45
  angle deg
:documentation
   .ast/.asf automatically generated from VICON data using
   VICON BodyBuilder and BodyLanguage model FoxedUp or BRILLIANT.MOD
:root
   order TX TY TZ RX RY RZ
   axis XYZ
   position 0 0 0  
   orientation 0 0 0 
:bonedata
  begin
     id 1 
     name lhipjoint
     direction 0.535335 -0.74333 0.401095 
     length 2.04549 
     axis 0 0 0  XYZ
  end
  begin
     id 2 
     name lfemur
     direction 0.34202 -0.939693 0  
     length 6.95643  
     axis 0 0 20  XYZ
    dof rx ry rz
    limits (-160.0 20.0)
           (-70.0 70.0)
           (-60.0 70.0)
  end
  begin
     id 3 
     name ltibia
     direction 0.34192 -0.939729 0   
     length 5.55969   
     axis 0 0 20   XYZ
    dof rx
    limits (-10.0 170.0)
  end
  begin
     id 4 
     name lfoot
     direction 0.216943 -0.596046 0.773088   
     length 2.27918   
     axis -90 7.62852e-016 20   XYZ
    dof rx rz
    limits (-45.0 90.0)
           (-70.0 20.0)
  end
  begin
     id 5 
     name ltoes
     direction 1.53519e-011 -4.21748e-011 1   
     length 1.05562   
     axis -90 7.62852e-016 20   XYZ
    dof rx
    limits (-90.0 20.0)
  end
  begin
     id 6 
     name rhipjoint
     direction -0.576368 -0.719173 0.38806   
     length 2.1142  
     axis 0 0 0  XYZ 
  end
  begin
     id 7 
     name rfemur
     direction -0.34202 -0.939693 0   
     length 7.07928   
     axis 0 0 -20   XYZ
    dof rx ry rz
    limits (-160.0 20.0)
           (-70.0 70.0)
           (-70.0 60.0)
  end
  begin
     id 8 
     name rtibia
     direction -0.34202 -0.939693 0   
     length 5.79974   
     axis 0 0 -20   XYZ
    dof rx
    limits (-10.0 170.0)
 end
 begin
     id 9 
     name rfoot
     direction -0.189288 -0.520065 0.832888   
     length 2.42173  
     axis -90 -7.62852e-016 -20   XYZ
    dof rx rz
    limits (-45.0 90.0)
           (-20.0 70.0)
  end
  begin
     id 10 
     name rtoes
     direction -1.53574e-011 -4.21658e-011 1   
     length 1.14469   
     axis -90 -7.62852e-016 -20   XYZ
    dof rx
    limits (-90.0 20.0)
  end
  begin
     id 11 
     name lowerback
     direction -0.00135702 0.993803 0.111144   
     length 1.91308   
     axis 0 0 0   XYZ
    dof rx ry rz
    limits (-20.0 45.0)
           (-30.0 30.0)
           (-30.0 30.0)
  end
  begin
     id 12 
     name upperback
     direction -0.0056745 0.999813 0.0184631   
     length 1.9212   
     axis 0 0 0   XYZ
    dof rx ry rz
    limits (-20.0 45.0)
           (-30.0 30.0)
           (-30.0 30.0)
  end
  begin
     id 13 
     name thorax
     direction -0.00733434 0.999426 -0.0330788   
     length 1.94196   
     axis 0 0 0   XYZ
    dof rx ry rz
    limits (-20.0 45.0)
           (-30.0 30.0)
           (-30.0 30.0)
  end
  begin
     id 14 
     name lowerneck
     direction 0.0563074 0.996944 -0.0541571   
     length 2.34257   
     axis 0 0 0   XYZ
    dof rx ry rz
    limits (-20.0 45.0)
           (-30.0 30.0)
           (-30.0 30.0)
  end
  begin
     id 15 
     name upperneck
     direction -0.0544519 0.976166 -0.210085   
     length 2.32506   
     axis 0 0 0   XYZ
    dof rx ry rz
    limits (-20.0 45.0)
           (-30.0 30.0)
           (-30.0 30.0)
  end
  begin
     id 16
     name head
     direction -0.0226035 0.997615 -0.0652205  
     length 2.3648  
     axis 0 0 0   XYZ
    dof rx ry rz
    limits (-20.0 45.0)
           (-30.0 30.0)
           (-30.0 30.0)
  end
  begin
     id 17 
     name lclavicle
     direction 0.92109 0.381297 -0.0787716  
     length 4.0487  
     axis 0 0 0   XYZ
    dof ry rz
    limits (-20.0 10.0)
           (0.0 20.0)
  end
  begin
     id 18 
     name lhumerus
     direction 1 -4.48986e-011 3.56724e-027   
     length 4.94991   
     axis 180 -30 -90   XYZ
    dof rx ry rz
    limits (-60.0 90.0)
           (-90.0 90.0)
           (-90.0 90.0)
  end
  begin
     id 19
     name lradius
     direction 1 -4.48981e-011 8.62147e-027   
     length 2.7606   
     axis 180 -30 -90   XYZ
    dof rx
    limits (-10.0 170.0)
  end
  begin
     id 20
     name lwrist
     direction 1 -4.48989e-011 1.59799e-026   
     length 1.3803   
     axis -1.17785e-014 90 90   XYZ
    dof ry
    limits (-180.0 0.0)
 end
  begin
     id 21 
     name lhand
     direction 1 -4.48896e-011 3.19599e-026   
     length 0.843936   
     axis -2.03931e-014 90 90   XYZ
    dof rx rz
    limits (-90.0 90.0)
           (-45.0 45.0)
  end
  begin
     id 22 
     name lfingers
     direction 1 -4.48887e-011 6.39197e-026   
     length 0.680403   
     axis -4.07862e-014 90 90   XYZ
    dof rx
    limits (0.0 90.0)
  end
  begin
     id 23
     name lthumb
     direction 0.707107 -6.348e-011 0.707107   
     length 0.976926   
     axis -90 45 2.85299e-015   XYZ
    dof rx rz
    limits (-45.0 45.0)
           (-45.0 45.0)
  end
  begin
     id 24 
     name rclavicle
     direction -0.951104 0.307692 -0.026953   
     length 4.21801  
     axis 0 0 0   XYZ 
    dof ry rz
    limits (-10.0 20.0)
           (-20.0 0.0)
  end
  begin
     id 25 
     name rhumerus
     direction -1 -4.4896e-011 -1.8171e-018  
     length 4.32982   
     axis 180 30 90   XYZ
    dof rx ry rz
    limits (-90.0 60.0)
           (-90.0 90.0)
           (-90.0 90.0)
  end
  begin
     id 26 
     name rradius
     direction -1 -4.48959e-011 8.25165e-027   
     length 3.20057   
     axis 180 30 90   XYZ
    dof rx
    limits (-10.0 170.0)
  end
  begin
     id 27 
     name rwrist
     direction -1 -4.48997e-011 1.59799e-026   
     length 1.60029   
     axis -1.17785e-014 -90 -90   XYZ
    dof ry
    limits (-180.0 0.0)
  end
  begin
     id 28
     name rhand
     direction -1 -4.49023e-011 3.19599e-026   
     length 0.960433   
     axis -2.03931e-014 -90 -90   XYZ
    dof rx rz
    limits (-90.0 90.0)
           (-45.0 45.0)
  end
  begin
     id 29
     name rfingers
     direction -1 -4.48802e-011 6.39197e-026   
     length 0.774326   
     axis -4.07862e-014 -90 -90   XYZ
    dof rx
    limits (0.0 90.0)
  end
  begin
     id 30
     name rthumb
     direction -0.707107 -6.34876e-011 0.707107   
     length 1.11178   
     axis -90 -45 -2.85299e-015   XYZ
    dof rx rz
    limits (-45.0 45.0)
           (-45.0 45.0)
  end
:hierarchy
  begin
    root lhipjoint rhipjoint lowerback
    lhipjoint lfemur
    lfemur ltibia
    ltibia lfoot
    lfoot ltoes
    rhipjoint rfemur
    rfemur rtibia
    rtibia rfoot
    rfoot rtoes
    lowerback upperback
    upperback thorax
    thorax lowerneck lclavicle rclavicle
    lowerneck upperneck
    upperneck head
    lclavicle lhumerus
    lhumerus lradius
    lradius lwrist
    lwrist lhand lthumb
    lhand lfingers
    rclavicle rhumerus
    rhumerus rradius
    rradius rwrist
    rwrist rhand rthumb
    rhand rfingers
end

#!OML:ASF C:\KaitlinTest1\Natural Motions\Nikki\Session 2\Nikki.ASF
:FULLY-SPECIFIED
:DEGREES
498
root -13.7834 16.7297 5.05772 -321.875 93.0286 -331.065
lowerback -12.7884 -1.34481 2.56373
upperback -4.876 -1.85678 -0.520521
thorax 1.94649 -0.859893 -2.24501
lowerneck -10.4539 -13.1842 -8.23831
upperneck 4.86832 41.8776 5.5767
head 166.883 57.4386 -38.583
rclavicle 1.00883e-014 2.38542e-015
rhumerus -40.5489 -31.199 -75.4113
rradius 14.4648
rwrist 24.8834
rhand -35.5626 -0.515618
rfingers 7.12502
rthumb -8.68767 -30.3168
lclavicle 1.00883e-014 2.38542e-015
lhumerus -40.5499 23.2092 75.4875
lradius 18.3625
lwrist -48.7141
lhand -31.3026 2.70283
lfingers 7.12502
lthumb -4.5753 32.6334
rfemur -8.55739 -19.1141 21.1453
rtibia 11.8055
rfoot -10.0372 13.0872
rtoes 1.90833e-014
lfemur -14.9623 19.882 -18.7286
ltibia 14.7744
lfoot -2.34325 -20.3684
ltoes 9.54166e-015
499
root -13.7855 16.7297 5.05792 -320.712 93.0535 -329.875
lowerback -12.748 -1.34288 2.61064
upperback -4.84966 -1.86167 -0.503122
thorax 1.95082 -0.863092 -2.25329
lowerneck -10.4577 -13.2061 -8.2029
upperneck 4.84171 41.7531 5.54309
head 166.695 57.5816 -38.6867
rclavicle -1.71452e-015 -4.37326e-015
rhumerus -40.5058 -31.2502 -75.4983
rradius 14.5915
rwrist 24.9027
rhand -35.5276 -0.48195
rfingers 7.12502
rthumb -8.65396 -30.2846
lclavicle -1.71452e-015 -4.37326e-015
lhumerus -39.9307 20.199 77.5032
lradius 18.5196
lwrist -45.2176
lhand -31.416 3.3118
lfingers 7.12502
lthumb -4.68485 33.24
rfemur -8.53547 -19.1249 21.2208
rtibia 11.7759
rfoot -10.0123 13.1105
rtoes -1.59028e-015
lfemur -14.9392 19.95 -18.6539
ltibia 14.7747
lfoot -2.35201 -20.4046
ltoes 3.02153e-014
500
root -13.7857 16.7316 5.05622 -321.299 92.988 -330.459
lowerback -12.7425 -1.34312 2.54995
upperback -4.84164 -1.85471 -0.521599
thorax 1.95822 -0.859299 -2.23737
lowerneck -10.4444 -13.1876 -8.20812
upperneck 4.86308 41.8208 5.56431
head 166.761 57.5318 -38.6546
rclavicle 5.01931e-015 1.98785e-015
rhumerus -40.4041 -31.1826 -75.6821
rradius 14.7009
rwrist 24.6179
rhand -35.6075 -0.51736
rfingers 7.12502
rthumb -8.73104 -30.3168
lclavicle 5.01931e-015 1.98785e-015
lhumerus -40.0679 20.2143 77.4888
lradius 18.6557
lwrist -45.2611
lhand -31.472 3.30872
lfingers 7.12502
lthumb -4.73891 33.2357
rfemur -8.52713 -19.0851 21.1181
rtibia 11.7615
rfoot -9.96602 13.1466
rtoes 5.48646e-014
lfemur -14.9049 19.9454 -18.7287
ltibia 14.7519
lfoot -2.38008 -20.3691
ltoes 1.90833e-014
501
root -13.7888 16.7331 5.05603 -320.801 92.9658 -329.958
lowerback -12.6968 -1.34262 2.54324
upperback -4.83598 -1.85323 -0.519612
thorax 1.9399 -0.859148 -2.2301
lowerneck -10.433 -13.1905 -8.18791
upperneck 4.86231 41.7856 5.55756
head 166.679 57.5891 -38.7014
rclavicle -1.29955e-014 1.98785e-015
rhumerus -40.3163 -31.1241 -75.8627
rradius 14.8562
rwrist 24.2804
rhand -35.6206 -0.528119
rfingers 7.12502
rthumb -8.74368 -30.327
lclavicle -1.29955e-014 1.98785e-015
lhumerus -40.1143 20.3818 77.3875
lradius 18.647
lwrist -45.3401
lhand -31.4222 3.23436
lfingers 7.12502
lthumb -4.69079 33.1624
rfemur -8.54443 -18.9835 21.1254
rtibia 11.7913
rfoot -9.94814 13.0777
rtoes 3.97569e-015
lfemur -14.8934 19.9279 -18.7118
ltibia 14.6989
lfoot -2.31897 -20.3218
ltoes -4.77083e-015
502
root -13.7908 16.7347 5.05468 -320.944 92.917 -330.19
lowerback -12.7661 -1.35044 2.49418
upperback -4.85876 -1.85715 -0.519246
thorax 1.95505 -0.859804 -2.20422
lowerneck -10.3882 -13.1943 -8.17558
upperneck 4.85542 41.6918 5.53394
head 166.546 57.6867 -38.7579
rclavicle 2.34069e-014 3.97569e-016
rhumerus -40.1609 -30.9324 -76.1111
rradius 14.9499
rwrist 23.8202
rhand -35.6218 -0.461692
rfingers 7.12502
rthumb -8.74486 -30.2605
lclavicle 2.34069e-014 3.97569e-016
lhumerus -40.1762 20.2095 77.5162
lradius 18.7418
lwrist -45.119
lhand -31.5079 3.27087
lfingers 7.12502
lthumb -4.77353 33.1971
rfemur -8.68895 -19.0139 21.1218
rtibia 11.8331
rfoot -9.97526 13.1328
rtoes 1.35174e-014
lfemur -14.9608 19.8825 -18.7855
ltibia 14.6216
lfoot -2.28245 -20.2432
ltoes 3.65764e-014
503
root -13.793 16.7331 5.05361 -320.575 92.9087 -329.802
lowerback -12.7402 -1.35219 2.49401
upperback -4.83022 -1.86109 -0.518335
thorax 1.97079 -0.862029 -2.20348
lowerneck -10.4102 -13.1884 -8.15056
upperneck 4.85977 41.7189 5.54555
head 166.536 57.7023 -38.7824
rclavicle 1.81391e-015 -2.18663e-015
rhumerus -40.003 -30.7988 -76.3366
rradius 15.0594
rwrist 23.438
rhand -35.5785 -0.277644
rfingers 7.12502
rthumb -8.7031 -30.0782
lclavicle 1.81391e-015 -2.18663e-015
lhumerus -40.1269 20.1202 77.6041
lradius 18.6965
lwrist -44.9621
lhand -31.5708 3.25265
lfingers 7.12502
lthumb -4.83426 33.1775
rfemur -8.68466 -19.0229 21.1283
rtibia 11.8449
rfoot -9.9762 13.1544
rtoes -3.97569e-015
lfemur -14.9092 19.8163 -18.7619
ltibia 14.5839
lfoot -2.26574 -20.1676
ltoes 2.06736e-014
504
root -13.7945 16.7334 5.05224 -320.231 92.8831 -329.452
lowerback -12.717 -1.35456 2.48115
upperback -4.82056 -1.86301 -0.522214
thorax 1.9686 -0.863229 -2.20005
lowerneck -10.3813 -13.19 -8.12034
upperneck 4.85288 41.6468 5.53974
head 166.467 57.7814 -38.8117
rclavicle 2.41523e-014 1.11319e-014
rhumerus -39.866 -30.712 -76.5483
rradius 15.1612
rwrist 23.0528
rhand -35.5214 -0.558346
rfingers 7.12502
rthumb -8.64797 -30.3612
lclavicle 2.41523e-014 1.11319e-014
lhumerus -40.1968 20.1866 77.5782
lradius 18.7222
lwrist -45.0106
lhand -31.7928 3.17432
lfingers 7.12502
lthumb -5.04868 33.0942
rfemur -8.70867 -19.0398 21.1234
rtibia 11.8914
rfoot -9.98667 13.2078
rtoes 5.96354e-014
lfemur -14.8784 19.7675 -18.753
ltibia 14.5358
lfoot -2.23957 -20.0621
ltoes -2.8625e-014
505
root -13.796 16.7344 5.05092 -320.752 92.8263 -330.017
lowerback -12.7774 -1.35585 2.42471
upperback -4.80134 -1.85928 -0.543194
thorax 2.02286 -0.860138 -2.1917
lowerneck -10.3875 -13.16 -8.1152
upperneck 4.86535 41.7251 5.57622
head 166.632 57.7148 -38.7237
rclavicle -3.97569e-016 -2.98177e-015
rhumerus -39.6396 -30.3796 -76.9839
rradius 15.388
rwrist 22.3005
rhand -35.5503 -0.813921
rfingers 7.12502
rthumb -8.67585 -30.6156
lclavicle -3.97569e-016 -2.98177e-015
lhumerus -40.1464 20.0328 77.7016
lradius 18.7522
lwrist -44.7635
lhand -31.952 3.02466
lfingers 7.12502
lthumb -5.20239 32.9408
rfemur -8.77549 -19.0813 21.0771
rtibia 11.9025
rfoot -10.0049 13.2731
rtoes 2.54444e-014
lfemur -14.9196 19.761 -18.8345
ltibia 14.5133
lfoot -2.21141 -20.0596
ltoes 3.02153e-014
506
root -13.7974 16.7341 5.05019 -319.887 92.8212 -329.124
lowerback -12.7022 -1.35847 2.43901
upperback -4.81551 -1.86319 -0.531458
thorax 1.96708 -0.86327 -2.18563
lowerneck -10.3065 -13.1531 -8.10382
upperneck 4.88191 41.6845 5.58175
head 166.604 57.7425 -38.7148
rclavicle 8.05078e-015 8.94531e-015
rhumerus -39.4865 -29.9942 -77.3863
rradius 15.586
rwrist 21.609
rhand -35.726 -0.469475
rfingers 7.12502
rthumb -8.84544 -30.2641
lclavicle 8.05078e-015 8.94531e-015
lhumerus -40.2512 20.0381 77.6961
lradius 18.8197
lwrist -44.8298
lhand -32.0188 2.93746
lfingers 7.12502
lthumb -5.26689 32.852
rfemur -8.74931 -19.1088 21.1033
rtibia 11.8826
rfoot -9.9872 13.3453
rtoes 5.00937e-014
lfemur -14.8813 19.7507 -18.7863
ltibia 14.5098
lfoot -2.10759 -20.0237
ltoes -2.54444e-014
